<?xml version="1.0" encoding="UTF-8"?>
<svg width="25px" height="25px" viewBox="0 0 25 25" version="1.1" xmlns="http://www.w3.org/2000/svg" xmlns:xlink="http://www.w3.org/1999/xlink">
    <!-- Generator: Sketch 42 (36781) - http://www.bohemiancoding.com/sketch -->
    <title>key</title>
    <desc>Created with Sketch.</desc>
    <defs></defs>
    <g id="UI" stroke="none" stroke-width="1" fill="none" fill-rule="evenodd">
        <g id="iPhone-SE" transform="translate(-37.000000, -312.000000)" fill-rule="nonzero" fill="#FFFFFF">
            <g id="Contraseña" transform="translate(35.000000, 312.000000)">
                <g id="key" transform="translate(14.500000, 12.500000) scale(-1, -1) translate(-14.500000, -12.500000) translate(2.000000, 0.000000)">
                    <g id="Capa_1">
                        <path d="M17.8572545,0 C13.9188616,0 10.7143973,3.20446429 10.7143973,7.14285714 C10.7143973,8.609375 11.159933,9.97321429 11.9206473,11.1089286 L0.130915179,22.8986607 C-0.0436383929,23.0732143 -0.0436383929,23.3553571 0.130915179,23.5299107 C0.21796875,23.6169643 0.332254464,23.6607143 0.446540179,23.6607143 C0.560825893,23.6607143 0.675111607,23.6169643 0.762165179,23.5299107 L2.67868304,21.6133929 L5.93448661,24.8691964 C6.02154018,24.95625 6.13582589,25 6.25011161,25 C6.36439732,25 6.47868304,24.95625 6.56573661,24.8691964 C6.74029018,24.6946429 6.74029018,24.4125 6.56573661,24.2379464 L3.30993304,20.9821429 L4.91082589,19.38125 L7.27377232,21.7441964 C7.36082589,21.83125 7.47511161,21.875 7.58939732,21.875 C7.70368304,21.875 7.81796875,21.83125 7.90502232,21.7441964 C8.07957589,21.5696429 8.07957589,21.2875 7.90502232,21.1129464 L5.54207589,18.75 L7.14296875,17.1491071 L10.3987723,20.4049107 C10.4858259,20.4919643 10.6001116,20.5357143 10.7143973,20.5357143 C10.828683,20.5357143 10.9429688,20.4919643 11.0300223,20.4049107 C11.2045759,20.2303571 11.2045759,19.9482143 11.0300223,19.7736607 L7.77421875,16.5178571 L12.4715402,11.8205357 C13.7822545,13.3272321 15.7081473,14.2857143 17.8572545,14.2857143 C21.7956473,14.2857143 25.0001116,11.08125 25.0001116,7.14285714 C25.0001116,3.20446429 21.7956473,0 17.8572545,0 Z M17.8572545,13.3928571 C14.4108259,13.3928571 11.6072545,10.5892857 11.6072545,7.14285714 C11.6072545,3.69642857 14.4108259,0.892857143 17.8572545,0.892857143 C21.303683,0.892857143 24.1072545,3.69642857 24.1072545,7.14285714 C24.1072545,10.5892857 21.303683,13.3928571 17.8572545,13.3928571 Z" id="Shape"></path>
                    </g>
                </g>
            </g>
        </g>
    </g>
</svg>