<?xml version="1.0" encoding="UTF-8"?>
<svg width="25px" height="25px" viewBox="0 0 25 25" version="1.1" xmlns="http://www.w3.org/2000/svg" xmlns:xlink="http://www.w3.org/1999/xlink">
    <!-- Generator: Sketch 42 (36781) - http://www.bohemiancoding.com/sketch -->
    <title>phone-call</title>
    <desc>Created with Sketch.</desc>
    <defs></defs>
    <g id="UI" stroke="none" stroke-width="1" fill="none" fill-rule="evenodd">
        <g id="iPhone-SE" transform="translate(-43.000000, -274.000000)" fill-rule="nonzero" fill="#FFFFFF">
            <g id="Teléfono" transform="translate(35.000000, 274.000000)">
                <g id="phone-call" transform="translate(8.000000, 0.000000)">
                    <g id="Capa_1">
                        <path d="M19.9125,24.7758333 C18.8816667,24.7758333 17.6366667,24.5175 16.2675,24.0008333 C13.2658333,22.8691667 10,20.6325 7.07166667,17.7041667 C4.1425,14.775 1.90583333,11.5083333 0.773333333,8.50666667 C-0.255833333,5.7775 -0.258333333,3.5375 0.7675,2.5125 C0.915,2.365 1.065,2.20666667 1.22,2.04333333 C2.15583333,1.05916667 3.21333333,-0.0483333333 4.615,0.00166666667 C5.58083333,0.0416666667 6.51666667,0.641666667 7.475,1.83416667 C10.3066667,5.35583333 9.03,6.61083333 7.5525,8.06583333 L7.29166667,8.32416667 C7.05,8.56583333 6.59333333,9.685 10.8416667,13.9333333 C12.2283333,15.32 13.4108333,16.335 14.3558333,16.9491667 C14.9508333,17.3358333 16.015,17.9208333 16.4516667,17.4841667 L16.7141667,17.2191667 C18.1675,15.745 19.4225,14.4725 22.9416667,17.3016667 C24.1341667,18.26 24.7333333,19.195 24.7733333,20.1625 C24.8308333,21.5633333 23.715,22.6233333 22.73,23.5583333 C22.5675,23.7133333 22.4091667,23.8633333 22.2616667,24.01 C21.7525,24.52 20.9383333,24.7758333 19.9125,24.7758333 Z M4.515,0.833333333 C3.51916667,0.833333333 2.62,1.78 1.82416667,2.6175 C1.66416667,2.78583333 1.50916667,2.94916667 1.35666667,3.10166667 C0.5925,3.865 0.67,5.87083333 1.55333333,8.21333333 C2.645,11.1066667 4.81416667,14.2683333 7.66166667,17.1158333 C10.5083333,19.9616667 13.6683333,22.1308333 16.5625,23.2216667 C18.905,24.1066667 20.9108333,24.1816667 21.6733333,23.4191667 C21.8258333,23.2666667 21.9891667,23.1116667 22.1575,22.9525 C23.0133333,22.1391667 23.9841667,21.2175 23.9416667,20.195 C23.9125,19.4925 23.4008333,18.7366667 22.4208333,17.9491667 C19.4883333,15.5908333 18.6683333,16.4233333 17.3083333,17.8025 L17.0416667,18.0716667 C16.3916667,18.7225 15.3358333,18.5783333 13.9025,17.6466667 C12.9083333,17 11.68,15.9483333 10.2533333,14.5208333 C6.7275,10.9958333 5.6,8.83833333 6.70333333,7.7325 L6.96916667,7.47 C8.35166667,6.11 9.18583333,5.28916667 6.82666667,2.355 C6.0375,1.37583333 5.2825,0.864166667 4.58,0.834166667 C4.55833333,0.833333333 4.53666667,0.833333333 4.515,0.833333333 Z" id="Shape"></path>
                    </g>
                </g>
            </g>
        </g>
    </g>
</svg>