<?xml version="1.0" encoding="UTF-8"?>
<svg width="20px" height="21px" viewBox="0 0 20 21" version="1.1" xmlns="http://www.w3.org/2000/svg" xmlns:xlink="http://www.w3.org/1999/xlink">
    <!-- Generator: Sketch 42 (36781) - http://www.bohemiancoding.com/sketch -->
    <title>search</title>
    <desc>Created with Sketch.</desc>
    <defs></defs>
    <g id="UI" stroke="none" stroke-width="1" fill="none" fill-rule="evenodd">
        <g id="iPhone-SE-Copy" transform="translate(-44.000000, -27.000000)" fill-rule="nonzero" fill="#9B9B9B">
            <g id="search" transform="translate(44.000000, 27.000000)">
                <g id="Capa_1">
                    <path d="M19.8861538,20.315717 L14.1711538,14.1928302 C15.6288462,12.6867736 16.5319231,10.6105472 16.5319231,8.32075472 C16.5319231,3.73245283 12.9088462,0 8.455,0 C4.00115385,0 0.378076923,3.73245283 0.378076923,8.32075472 C0.378076923,12.9090566 4.00115385,16.6415094 8.455,16.6415094 C10.41,16.6415094 12.2042308,15.921566 13.6026923,14.7269434 L19.3315385,20.8648868 C19.4069231,20.9461132 19.5076923,20.9865283 19.6088462,20.9865283 C19.705,20.9865283 19.8007692,20.9496792 19.8753846,20.8759811 C20.0284615,20.7242264 20.0330769,20.4734151 19.8861538,20.315717 Z M8.455,15.8490566 C4.42538462,15.8490566 1.14730769,12.4720189 1.14730769,8.32075472 C1.14730769,4.16949057 4.42538462,0.79245283 8.455,0.79245283 C12.4846154,0.79245283 15.7626923,4.16949057 15.7626923,8.32075472 C15.7626923,12.4720189 12.4842308,15.8490566 8.455,15.8490566 Z" id="Shape"></path>
                </g>
            </g>
        </g>
    </g>
</svg>