<?xml version="1.0" encoding="UTF-8"?>
<svg width="19px" height="25px" viewBox="0 0 19 25" version="1.1" xmlns="http://www.w3.org/2000/svg" xmlns:xlink="http://www.w3.org/1999/xlink">
    <!-- Generator: Sketch 42 (36781) - http://www.bohemiancoding.com/sketch -->
    <title>user</title>
    <desc>Created with Sketch.</desc>
    <defs></defs>
    <g id="UI" stroke="none" stroke-width="1" fill="none" fill-rule="evenodd">
        <g id="iPhone-SE" transform="translate(-40.000000, -252.000000)" fill-rule="nonzero" fill="#FFFFFF">
            <g id="User" transform="translate(35.000000, 252.000000)">
                <g id="user" transform="translate(5.000000, 0.000000)">
                    <g id="Capa_1">
                        <path d="M16.9405652,17.8704167 L12.9947609,15.8804167 C12.6226087,15.6925 12.3913043,15.315 12.3913043,14.895 L12.3913043,13.48625 C12.4858913,13.3695833 12.5854348,13.2366667 12.6882826,13.09 C13.2000435,12.3608333 13.6101957,11.5491667 13.908413,10.67375 C14.4912174,10.4041667 14.8695652,9.82291667 14.8695652,9.16666667 L14.8695652,7.5 C14.8695652,7.09875 14.7208696,6.71 14.4565217,6.40625 L14.4565217,4.19 C14.4796522,3.96083333 14.5705217,2.59666667 13.5924348,1.47125 C12.7440435,0.495 11.3673696,0 9.5,0 C7.63263043,0 6.25595652,0.495 5.40756522,1.47083333 C4.42947826,2.59625 4.52034783,3.96083333 4.54347826,4.19 L4.54347826,6.40625 C4.27913043,6.71 4.13043478,7.09875 4.13043478,7.5 L4.13043478,9.16666667 C4.13043478,9.67375 4.35884783,10.1466667 4.74876087,10.4620833 C5.1271087,11.9733333 5.91891304,13.1120833 6.19565217,13.4775 L6.19565217,14.85625 C6.19565217,15.2595833 5.97756522,15.6295833 5.6268913,15.8229167 L1.94213043,17.8504167 C0.743891304,18.51 0,19.7741667 0,21.1508333 L0,22.5 C0,24.4775 6.21423913,25 9.5,25 C12.7857609,25 19,24.4775 19,22.5 L19,21.2320833 C19,19.7995833 18.2106739,18.51125 16.9405652,17.8704167 Z M18.173913,22.5 C18.173913,23.0654167 15.1124348,24.1666667 9.5,24.1666667 C3.88756522,24.1666667 0.826086957,23.0654167 0.826086957,22.5 L0.826086957,21.1508333 C0.826086957,20.0795833 1.40517391,19.095 2.33741304,18.5825 L6.02217391,16.555 C6.63884783,16.2154167 7.02173913,15.5641667 7.02173913,14.85625 L7.02173913,13.1816667 L6.9255,13.0658333 C6.91558696,13.05375 5.90321739,11.8183333 5.51702174,10.1220833 L5.47943478,9.95708333 L5.33858696,9.86541667 C5.09943478,9.70958333 4.95652174,9.44833333 4.95652174,9.16666667 L4.95652174,7.5 C4.95652174,7.26625 5.05482609,7.04833333 5.23326087,6.88541667 L5.36956522,6.76166667 L5.36956522,4.16666667 L5.36584783,4.11208333 C5.3646087,4.10083333 5.22417391,2.94583333 6.02878261,2.02 C6.71319565,1.2325 7.88128261,0.833333333 9.5,0.833333333 C11.1129348,0.833333333 12.2785435,1.22958333 12.9637826,2.01166667 C13.7679783,2.92875 13.6349783,4.10208333 13.6341522,4.11208333 L13.6304348,6.76166667 L13.7667391,6.88583333 C13.9451739,7.04833333 14.0434783,7.26625 14.0434783,7.5 L14.0434783,9.16666667 C14.0434783,9.53041667 13.8072174,9.84875 13.4561304,9.95791667 L13.2504348,10.0216667 L13.1843478,10.2279167 C12.9080217,11.095 12.5143913,11.8958333 12.0137826,12.6083333 C11.8911087,12.78375 11.7717391,12.9391667 11.6680652,13.0579167 L11.5652174,13.17625 L11.5652174,14.895 C11.5652174,15.6325 11.9712391,16.2954167 12.625087,16.6254167 L16.5708913,18.6154167 C17.5597174,19.1141667 18.173913,20.1166667 18.173913,21.2320833 L18.173913,22.5 Z" id="Shape"></path>
                    </g>
                </g>
            </g>
        </g>
    </g>
</svg>